<svg id="Layer_1" data-name="Layer 1" xmlns="http://www.w3.org/2000/svg" viewBox="0 0 216 216"><defs><style>.bfhc-1{fill:#023765;}.bfhc-2{fill:#1dd2f9;}.bfhc-3{fill:#f9ae40;}</style></defs><path class="bfhc-1" d="M213.17,154.81H2.83A2.83,2.83,0,0,1,0,152V26.37a2.83,2.83,0,0,1,2.83-2.83H30.08a2.83,2.83,0,0,1,0,5.66H5.66v120H210.34V29.2H185.92a2.83,2.83,0,1,1,0-5.66h27.25A2.83,2.83,0,0,1,216,26.37V152A2.83,2.83,0,0,1,213.17,154.81Z"/><path class="bfhc-1" d="M213.17,174.2H2.83A2.83,2.83,0,0,1,0,171.37V152a2.83,2.83,0,0,1,2.83-2.83H213.17A2.83,2.83,0,0,1,216,152v19.39A2.83,2.83,0,0,1,213.17,174.2ZM5.66,168.53H210.34V154.81H5.66Z"/><path class="bfhc-2" d="M67.89,87.36a2.83,2.83,0,0,1-2.83-2.83V10.8a2.83,2.83,0,0,1,5.66,0V84.53A2.83,2.83,0,0,1,67.89,87.36Z"/><path class="bfhc-2" d="M121.37,63.14a2.83,2.83,0,0,1-2.83-2.83V10.8a2.83,2.83,0,1,1,5.66,0V60.31A2.83,2.83,0,0,1,121.37,63.14Z"/><path class="bfhc-2" d="M94.63,65A2.83,2.83,0,0,1,91.8,62.2V10.8a2.83,2.83,0,1,1,5.66,0V62.2A2.83,2.83,0,0,1,94.63,65Z"/><path class="bfhc-2" d="M131.74,52.9H52.47a2.83,2.83,0,0,1,0-5.66h79.27a2.83,2.83,0,0,1,0,5.66Z"/><path class="bfhc-2" d="M78.26,76.59H52.47a2.83,2.83,0,0,1,0-5.66H78.26a2.83,2.83,0,0,1,0,5.66Z"/><path class="bfhc-2" d="M148.11,39.45a2.83,2.83,0,0,1-2.83-2.83V10.8a2.83,2.83,0,1,1,5.66,0V36.62A2.83,2.83,0,0,1,148.11,39.45Z"/><path class="bfhc-2" d="M163.53,29.2H52.47a2.83,2.83,0,1,1,0-5.66H163.53a2.83,2.83,0,1,1,0,5.66Z"/><path class="bfhc-3" d="M67.89,100.81H41.15a2.83,2.83,0,0,1,0-5.66H66.8L92.73,71.66a2.84,2.84,0,0,1,1.9-.73H120.3l25.93-23a2.84,2.84,0,0,1,1.88-.71h26.74a2.83,2.83,0,1,1,0,5.66H149.18l-25.93,23a2.84,2.84,0,0,1-1.88.71H95.72L69.79,100.08A2.84,2.84,0,0,1,67.89,100.81Z"/><path class="bfhc-1" d="M41.15,89.18a2.83,2.83,0,0,1-2.83-2.83V10.8a2.83,2.83,0,1,1,5.66,0V86.35A2.83,2.83,0,0,1,41.15,89.18Z"/><path class="bfhc-1" d="M174.85,132.58H41.15a2.83,2.83,0,0,1-2.83-2.83V109.54a2.83,2.83,0,1,1,5.66,0v17.37H172V61.63a2.83,2.83,0,1,1,5.66,0v68.12A2.83,2.83,0,0,1,174.85,132.58Z"/><path class="bfhc-1" d="M174.85,41.34A2.83,2.83,0,0,1,172,38.51V10.8a2.83,2.83,0,0,1,5.66,0V38.51A2.83,2.83,0,0,1,174.85,41.34Z"/><path class="bfhc-1" d="M136.19,196.23a2.83,2.83,0,0,1-2.68-1.92l-6.9-20.11H89.39l-6.9,20.11a2.83,2.83,0,0,1-5.35-1.83l7.55-22a2.82,2.82,0,0,1,2.67-1.92h41.28a2.82,2.82,0,0,1,2.67,1.92l7.55,22a2.83,2.83,0,0,1-1.76,3.59A2.65,2.65,0,0,1,136.19,196.23Z"/><path class="bfhc-1" d="M154.84,208A2.83,2.83,0,0,1,152,205.2v-9H119.14a2.83,2.83,0,0,1,0-5.66h35.7a2.83,2.83,0,0,1,2.83,2.83V205.2A2.83,2.83,0,0,1,154.84,208Z"/><path class="bfhc-1" d="M61.15,208a2.83,2.83,0,0,1-2.83-2.83V193.39a2.83,2.83,0,0,1,2.83-2.83H122a2.83,2.83,0,1,1,0,5.66H64v9A2.83,2.83,0,0,1,61.15,208Z"/><path class="bfhc-1" d="M189.15,208H26.85a2.83,2.83,0,0,1,0-5.66h162.3a2.83,2.83,0,1,1,0,5.66Z"/><path class="bfhc-1" d="M94.63,79.51a5.75,5.75,0,1,1,5.75-5.75A5.76,5.76,0,0,1,94.63,79.51Zm0-5.84.09.09A.09.09,0,0,0,94.63,73.67Z"/><path class="bfhc-1" d="M67.89,103.73A5.75,5.75,0,1,1,73.64,98,5.76,5.76,0,0,1,67.89,103.73Zm0-5.84L68,98A.09.09,0,0,0,67.89,97.89Z"/><path class="bfhc-1" d="M41.15,103.73A5.75,5.75,0,1,1,46.9,98,5.76,5.76,0,0,1,41.15,103.73Zm0-5.84.09.09A.09.09,0,0,0,41.15,97.89Z"/><path class="bfhc-1" d="M121.37,79.51a5.75,5.75,0,1,1,5.75-5.75A5.76,5.76,0,0,1,121.37,79.51Zm0-5.84a.09.09,0,0,0-.09.09Z"/><path class="bfhc-1" d="M174.85,55.82a5.75,5.75,0,1,1,5.75-5.75A5.76,5.76,0,0,1,174.85,55.82Zm0-5.84a.09.09,0,0,0-.09.09Z"/><path class="bfhc-1" d="M148.11,55.82a5.75,5.75,0,1,1,5.75-5.75A5.76,5.76,0,0,1,148.11,55.82Zm0-5.84.09.09A.09.09,0,0,0,148.11,50Z"/></svg>